<?xml version="1.0" encoding="utf-8"?>
<!-- Generator: Adobe Illustrator 15.1.0, SVG Export Plug-In . SVG Version: 6.00 Build 0)  -->
<!DOCTYPE svg PUBLIC "-//W3C//DTD SVG 1.1//EN" "http://www.w3.org/Graphics/SVG/1.1/DTD/svg11.dtd">
<svg version="1.1" id="Layer_1" xmlns="http://www.w3.org/2000/svg" xmlns:xlink="http://www.w3.org/1999/xlink" x="0px" y="0px"
	 width="82px" height="60px" viewBox="0 0 82 60" enable-background="new 0 0 82 60" xml:space="preserve">
<g>
	<path fill="#919191" d="M11.135,49.778c-2.013,0-3.489-1.256-4.688-2.277c-0.134-0.114-0.269-0.229-0.402-0.34
		c-0.17-0.142-0.311-0.319-0.41-0.517c-0.113-0.227-0.283-0.566-0.368-0.682c-0.065-0.068-0.124-0.142-0.176-0.22
		c-0.562-0.842-0.912-1.999-0.916-3.024C4.031,35.68,4.08,28.536,4.127,21.627c0.023-3.449,0.048-7.015,0.048-10.52
		c0-0.782,0.31-1.429,0.571-1.953c1.142-2.786,3.636-4.586,6.378-4.602c8.318-0.332,16.869-0.279,25.139-0.228
		c2.439,0.015,4.962,0.031,7.433,0.036c0.89,0.002,1.61,0.725,1.608,1.615c-0.002,0.889-0.724,1.608-1.612,1.608
		c-0.001,0-0.002,0-0.003,0c-2.478-0.005-5.004-0.021-7.446-0.036C28,7.498,19.476,7.445,11.224,7.775
		c-0.021,0.001-0.043,0.001-0.064,0.001c-1.43,0-2.814,1.061-3.446,2.641c-0.017,0.042-0.035,0.082-0.055,0.122
		c-0.095,0.189-0.236,0.473-0.259,0.588c0,3.509-0.024,7.074-0.048,10.521c-0.047,6.892-0.095,14.019,0.047,21.018
		c0,0.011,0,0.022,0,0.033c0,0.32,0.11,0.81,0.323,1.173c0.253,0.3,0.457,0.662,0.646,1.03c0.056,0.047,0.112,0.095,0.169,0.144
		c1.147,0.977,1.905,1.569,2.726,1.503c0.89-0.065,1.661,0.599,1.728,1.487c0.067,0.887-0.599,1.661-1.486,1.728
		C11.378,49.774,11.255,49.778,11.135,49.778z"/>
</g>
<g>
	<circle fill="#636464" cx="70.259" cy="45.923" r="2.149"/>
</g>
<g>
	<path fill="#636464" d="M16.357,58.799c-0.357,0-0.713-0.119-1.006-0.353c-0.529-0.423-0.738-1.131-0.522-1.773l2.926-8.709h-3.593
		c-4.275,0-7.753-3.478-7.753-7.752V10.287c0-4.275,3.478-7.752,7.753-7.752h55.034c4.275,0,7.753,3.478,7.753,7.752v29.065
		c0,0.89-0.722,1.612-1.612,1.612c-0.891,0-1.612-0.722-1.612-1.612V10.287c0-2.497-2.032-4.529-4.529-4.529H14.163
		c-2.498,0-4.529,2.032-4.529,4.529v29.925c0,2.497,2.032,4.528,4.529,4.528h5.834c0.519,0,1.006,0.25,1.309,0.671
		c0.303,0.421,0.385,0.962,0.219,1.454l-2.233,6.647l14.024-8.538c0.252-0.154,0.542-0.235,0.838-0.235h27.334
		c0.891,0,1.612,0.722,1.612,1.612c0,0.891-0.721,1.612-1.612,1.612H34.606l-17.411,10.6C16.937,58.721,16.646,58.799,16.357,58.799
		z"/>
</g>
</svg>
