<?xml version="1.0" encoding="utf-8"?>
<!-- Generator: Adobe Illustrator 15.1.0, SVG Export Plug-In . SVG Version: 6.00 Build 0)  -->
<!DOCTYPE svg PUBLIC "-//W3C//DTD SVG 1.1//EN" "http://www.w3.org/Graphics/SVG/1.1/DTD/svg11.dtd">
<svg version="1.1" id="Layer_1" xmlns="http://www.w3.org/2000/svg" xmlns:xlink="http://www.w3.org/1999/xlink" x="0px" y="0px"
	 width="43px" height="40px" viewBox="0 0 43 40" enable-background="new 0 0 43 40" xml:space="preserve">
<g>
	<path fill="#274092" d="M20.645,29.196c-0.214,0-0.43-0.065-0.615-0.203l-6.639-4.909c-0.46-0.34-0.557-0.988-0.217-1.448
		c0.34-0.46,0.989-0.557,1.448-0.216l6.639,4.909c0.46,0.34,0.557,0.988,0.217,1.448C21.275,29.051,20.962,29.196,20.645,29.196z"/>
</g>
<g>
	<path fill="#274092" d="M20.907,29.354c-0.196,0-0.396-0.056-0.571-0.173c-0.476-0.316-0.606-0.959-0.29-1.435L33.755,7.103
		c0.316-0.477,0.959-0.606,1.435-0.29c0.477,0.316,0.606,0.959,0.29,1.435L21.771,28.891C21.571,29.191,21.242,29.354,20.907,29.354
		z"/>
</g>
<g>
	<circle fill="#40BB97" cx="22.75" cy="6.579" r="1.129"/>
</g>
<g>
	<path fill="#40BB97" d="M21.341,36.372C12.882,36.372,6,29.49,6,21.031c0-3.817,1.411-7.476,3.973-10.302
		c2.543-2.805,6.011-4.566,9.762-4.957c0.568-0.059,1.078,0.354,1.137,0.922c0.06,0.569-0.354,1.078-0.923,1.137
		C13.177,8.537,8.071,14.211,8.071,21.031c0,7.317,5.953,13.27,13.271,13.27c6.981,0,12.798-5.451,13.243-12.41
		c0.036-0.571,0.529-1.003,1.099-0.968c0.571,0.037,1.004,0.529,0.967,1.1C36.137,30.069,29.412,36.372,21.341,36.372z"/>
</g>
<g>
	<path fill="#40BB97" d="M20.503,28.114c-0.213,0-0.428-0.065-0.612-0.201l-7.722-5.673c-0.46-0.339-0.56-0.986-0.221-1.447
		c0.338-0.461,0.986-0.56,1.447-0.222l7.722,5.673c0.461,0.338,0.56,0.986,0.222,1.447C21.136,27.968,20.822,28.114,20.503,28.114z"
		/>
</g>
<g>
	<path fill="#40BB97" d="M20.766,28.271c-0.197,0-0.396-0.056-0.572-0.173c-0.476-0.316-0.605-0.959-0.289-1.435L33.614,6.02
		c0.316-0.476,0.958-0.606,1.435-0.289c0.476,0.316,0.605,0.958,0.289,1.435L21.629,27.809
		C21.43,28.109,21.101,28.271,20.766,28.271z"/>
</g>
</svg>
