<?xml version="1.0" encoding="utf-8"?>
<!-- Generator: Adobe Illustrator 15.1.0, SVG Export Plug-In . SVG Version: 6.00 Build 0)  -->
<!DOCTYPE svg PUBLIC "-//W3C//DTD SVG 1.1//EN" "http://www.w3.org/Graphics/SVG/1.1/DTD/svg11.dtd">
<svg version="1.1" id="Layer_1" xmlns="http://www.w3.org/2000/svg" xmlns:xlink="http://www.w3.org/1999/xlink" x="0px" y="0px"
	 width="652px" height="86.19px" viewBox="93.445 200.95 652 86.19" enable-background="new 93.445 200.95 652 86.19"
	 xml:space="preserve">
<g>
	<g>
		<path fill="#25408F" d="M339.839,282.217c0.788,0.141,1.646,0.25,2.575,0.321c0.929,0.07,1.896,0.108,2.896,0.108
			c0.93,0,1.86-0.038,2.791-0.108c0.929-0.071,1.822-0.181,2.683-0.321v-77.146c-0.859-0.141-1.754-0.25-2.683-0.32
			c-0.931-0.071-1.861-0.109-2.791-0.109s-1.861,0.038-2.79,0.109c-0.93,0.07-1.825,0.18-2.683,0.32 M276,282.217
			c0.858,0.141,1.788,0.229,2.79,0.269c1,0.033,1.933,0.053,2.79,0.053c0.858,0,1.771-0.036,2.736-0.107
			c0.966-0.073,1.841-0.143,2.629-0.214v-68.778c1.288-0.141,2.449-0.247,3.487-0.32c1.036-0.071,2.163-0.107,3.379-0.107
			c5.15,0,9.245,1.253,12.286,3.755c3.04,2.504,4.561,6.329,4.561,11.48c0,2.792-0.61,5.17-1.825,7.136
			c-1.216,1.968-2.735,3.647-4.56,5.042c-1.823,1.396-3.81,2.522-5.955,3.38c-2.146,0.859-4.184,1.538-6.116,2.039l-0.857,0.214
			v0.43l24.679,35.73c1.93,0.214,3.862,0.321,5.792,0.321c2.431,0,4.614-0.107,6.547-0.321l-22.425-32.511l1.287-0.645
			c1.716-0.858,3.486-1.949,5.312-3.272c1.823-1.32,3.449-2.877,4.88-4.667c1.43-1.788,2.609-3.825,3.542-6.115
			c0.93-2.288,1.395-4.828,1.395-7.62c0-4.647-0.876-8.491-2.627-11.534c-1.752-3.039-4.024-5.453-6.813-7.242
			c-2.789-1.785-5.975-3.039-9.55-3.755c-3.577-0.712-7.189-1.072-10.836-1.072c-1.646,0-3.148,0.037-4.506,0.108
			c-1.361,0.071-2.666,0.16-3.917,0.27c-1.253,0.106-2.521,0.234-3.81,0.375c-1.288,0.145-2.719,0.287-4.292,0.43v77.251H276z
			 M218.009,271.97c-2.613-1.394-4.774-3.414-6.49-6.062c-1.718-2.646-3.005-5.828-3.863-9.548s-1.288-7.939-1.288-12.662
			c0-4.647,0.43-8.852,1.288-12.606s2.146-6.938,3.863-9.55c1.716-2.609,3.877-4.614,6.49-6.008
			c2.609-1.395,5.701-2.095,9.281-2.095c3.575,0,6.668,0.7,9.281,2.095c2.609,1.394,4.775,3.398,6.491,6.008
			c1.717,2.61,3.004,5.794,3.862,9.55c0.858,3.755,1.287,7.959,1.287,12.606c0,4.723-0.429,8.942-1.287,12.662
			s-2.146,6.903-3.862,9.548c-1.716,2.648-3.882,4.669-6.491,6.062c-2.613,1.396-5.707,2.094-9.281,2.094
			C223.71,274.063,220.618,273.366,218.009,271.97 M241.774,280.554c4.078-1.966,7.458-4.722,10.14-8.261
			c2.684-3.542,4.668-7.743,5.955-12.607c1.288-4.864,1.932-10.192,1.932-15.988c0-5.794-0.645-11.12-1.932-15.986
			c-1.287-4.862-3.271-9.065-5.955-12.607c-2.682-3.542-6.062-6.312-10.14-8.314c-4.077-2.001-8.905-3.005-14.484-3.005
			s-10.407,1.004-14.484,3.005c-4.077,2.003-7.456,4.772-10.139,8.314s-4.687,7.745-6.009,12.607
			c-1.326,4.866-1.984,10.192-1.984,15.986c0,5.795,0.659,11.124,1.984,15.988c1.322,4.864,3.327,9.065,6.009,12.607
			c2.683,3.54,6.062,6.295,10.139,8.261c4.077,1.965,8.906,2.95,14.484,2.95C232.869,283.504,237.698,282.519,241.774,280.554
			 M112.592,282.217c0.858,0.141,1.842,0.25,2.951,0.321c1.107,0.07,2.093,0.108,2.951,0.108c1,0,2.092-0.038,3.272-0.108
			c1.18-0.071,2.271-0.181,3.271-0.321l15.451-60.408l15.236,60.408c1,0.141,2.108,0.25,3.325,0.321
			c1.215,0.07,2.324,0.108,3.326,0.108c0.931,0,1.967-0.038,3.112-0.108c1.144-0.071,2.146-0.181,3.004-0.321l18.562-77.146
			c-0.787-0.141-1.7-0.25-2.736-0.32c-1.039-0.071-2.058-0.109-3.058-0.109c-0.858,0-1.736,0.038-2.63,0.109
			c-0.895,0.07-1.735,0.18-2.521,0.32l-13.412,64.914l-15.987-64.914c-0.788-0.141-1.716-0.25-2.789-0.32
			c-1.072-0.071-2.039-0.109-2.896-0.109c-0.931,0-1.914,0.038-2.951,0.109c-1.038,0.07-1.985,0.18-2.844,0.32l-15.879,64.271
			l-13.197-64.271c-0.858-0.141-1.808-0.25-2.844-0.32c-1.039-0.071-2.059-0.109-3.059-0.109c-1.003,0-2.093,0.038-3.271,0.109
			c-1.182,0.07-2.166,0.18-2.951,0.32L112.592,282.217z"/>
		<path fill="#25408F" d="M380.672,282.28c1.073,0.144,2.11,0.25,3.112,0.323c1,0.069,1.932,0.107,2.789,0.107
			c1.002,0,2.058-0.038,3.167-0.107c1.106-0.073,2.234-0.18,3.38-0.323l-27.576-40.129l24.464-37.017
			c-1.146-0.141-2.253-0.25-3.325-0.321c-1.073-0.07-2.074-0.108-3.005-0.108c-0.788,0-1.664,0.038-2.629,0.108
			c-0.966,0.071-1.95,0.181-2.95,0.321l-24.787,37.983L380.672,282.28z"/>
	</g>
	<path fill="#25408F" d="M703.481,282.064h41.095c0.214-1.502,0.321-3.111,0.321-4.828c0-0.715-0.017-1.503-0.053-2.359
		c-0.038-0.859-0.126-1.682-0.27-2.469h-30.258v-67.489c-0.856-0.142-1.752-0.248-2.683-0.321c-0.929-0.071-1.861-0.106-2.789-0.106
		c-1.002,0-1.949,0.035-2.844,0.106c-0.896,0.073-1.733,0.18-2.521,0.321L703.481,282.064L703.481,282.064z M660.565,215.328
		l11.803,39.376H648.87L660.565,215.328z M680.63,282.064c0.858,0.144,1.771,0.25,2.736,0.323c0.967,0.071,1.911,0.107,2.845,0.107
		c0.999,0,2.038-0.036,3.11-0.107c1.073-0.073,2.037-0.18,2.896-0.323l-25.001-77.146c-1.002-0.142-2.037-0.248-3.109-0.321
		c-1.073-0.071-2.112-0.107-3.112-0.107c-1.146,0-2.253,0.036-3.324,0.107c-1.073,0.073-2.077,0.18-3.006,0.321l-25.107,77.146
		c0.786,0.144,1.664,0.25,2.63,0.323c0.964,0.071,1.947,0.107,2.951,0.107c0.928,0,1.855-0.036,2.789-0.107
		c0.929-0.073,1.857-0.18,2.789-0.323l5.258-17.811h29.29L680.63,282.064z M601.017,282.064c1.717,0.216,3.577,0.323,5.579,0.323
		c1.932,0,3.719-0.107,5.364-0.323v-67.596h20.064c0.144-0.714,0.252-1.52,0.32-2.414c0.071-0.893,0.108-1.733,0.108-2.521
		c0-0.786-0.037-1.572-0.108-2.359c-0.068-0.786-0.178-1.539-0.32-2.255h-51.072c-0.145,0.716-0.251,1.484-0.321,2.307
		c-0.071,0.823-0.107,1.628-0.107,2.414c0,0.788,0.036,1.609,0.107,2.469c0.07,0.857,0.178,1.646,0.321,2.359h20.063
		L601.017,282.064L601.017,282.064z M557.885,282.064c0.786,0.144,1.662,0.25,2.628,0.323c0.966,0.071,1.913,0.107,2.844,0.107
		c1.002,0,1.949-0.036,2.844-0.107c0.896-0.073,1.77-0.18,2.628-0.323v-77.146c-0.858-0.142-1.754-0.248-2.683-0.321
		c-0.928-0.071-1.86-0.107-2.789-0.107c-0.931,0-1.86,0.036-2.789,0.107c-0.931,0.073-1.825,0.18-2.683,0.321V282.064z
		 M508.1,213.396c2.001-0.214,4.327-0.32,6.974-0.32c2.576,0,4.973,0.251,7.188,0.75c2.217,0.503,4.113,1.359,5.688,2.574
		c1.571,1.219,2.807,2.827,3.701,4.829c0.896,2.003,1.341,4.473,1.341,7.404c0,3.361-0.52,6.098-1.555,8.208
		c-1.038,2.11-2.414,3.771-4.131,4.987c-1.719,1.218-3.665,2.058-5.849,2.522c-2.183,0.465-4.383,0.696-6.601,0.696
		c-1.645,0-2.896-0.033-3.755-0.107c-0.857-0.07-1.858-0.178-3.003-0.319L508.1,213.396L508.1,213.396z M497.154,282.064
		c0.859,0.144,1.771,0.232,2.736,0.269c0.967,0.036,1.878,0.055,2.737,0.055c1.93,0,3.755-0.107,5.472-0.323v-27.896
		c1.215,0.145,2.343,0.234,3.38,0.269c1.035,0.038,2.236,0.054,3.594,0.054c3.648,0,7.227-0.41,10.729-1.233
		c3.504-0.821,6.635-2.234,9.389-4.237s4.971-4.667,6.651-7.995c1.681-3.326,2.521-7.492,2.521-12.5
		c0-4.791-0.786-8.777-2.359-11.961c-1.573-3.183-3.7-5.742-6.384-7.672c-2.683-1.932-5.794-3.29-9.336-4.078
		c-3.539-0.786-7.277-1.18-11.212-1.18c-1.502,0-3.057,0.038-4.667,0.106c-1.608,0.073-3.219,0.162-4.828,0.27
		c-1.608,0.105-3.148,0.234-4.613,0.375c-1.465,0.145-2.737,0.289-3.811,0.43L497.154,282.064L497.154,282.064z M454.238,215.328
		l11.804,39.376h-23.496L454.238,215.328z M474.304,282.064c0.855,0.144,1.771,0.25,2.733,0.323
		c0.967,0.071,1.913,0.107,2.845,0.107c1,0,2.039-0.036,3.111-0.107c1.073-0.073,2.039-0.18,2.896-0.323l-24.999-77.146
		c-1.002-0.142-2.039-0.248-3.112-0.321c-1.072-0.071-2.112-0.107-3.11-0.107c-1.146,0-2.254,0.036-3.326,0.107
		c-1.073,0.073-2.074,0.18-3.005,0.321l-25.105,77.146c0.784,0.144,1.662,0.25,2.628,0.323c0.966,0.071,1.949,0.107,2.95,0.107
		c0.929,0,1.859-0.036,2.79-0.107c0.93-0.073,1.857-0.18,2.789-0.323l5.258-17.811h29.292L474.304,282.064z"/>
</g>
<path fill="#D7681C" d="M404.746,282.28c1.073,0.144,2.108,0.25,3.11,0.323c1.001,0.069,1.932,0.107,2.792,0.107
	c1,0,2.056-0.038,3.164-0.107c1.106-0.073,2.234-0.18,3.38-0.323l-27.576-40.129l24.464-37.017c-1.145-0.141-2.253-0.25-3.325-0.321
	c-1.073-0.07-2.074-0.108-3.003-0.108c-0.788,0-1.664,0.038-2.631,0.108c-0.966,0.071-1.95,0.181-2.95,0.321l-24.785,37.983
	L404.746,282.28z"/>
</svg>
