<?xml version="1.0" encoding="utf-8"?>
<!-- Generator: Adobe Illustrator 15.1.0, SVG Export Plug-In . SVG Version: 6.00 Build 0)  -->
<!DOCTYPE svg PUBLIC "-//W3C//DTD SVG 1.1//EN" "http://www.w3.org/Graphics/SVG/1.1/DTD/svg11.dtd">
<svg version="1.1" id="Layer_1" xmlns="http://www.w3.org/2000/svg" xmlns:xlink="http://www.w3.org/1999/xlink" x="0px" y="0px"
	 width="147.333px" height="104.667px" viewBox="0 0 147.333 104.667" enable-background="new 0 0 147.333 104.667"
	 xml:space="preserve">
<g>
	<path fill="#F19720" d="M127.594,68.229c-0.23,0-0.465-0.033-0.697-0.104c-1.269-0.384-1.986-1.725-1.603-2.994l14.727-48.662
		c0.384-1.27,1.724-1.987,2.994-1.603c1.269,0.384,1.986,1.725,1.603,2.994l-14.727,48.662
		C129.578,67.56,128.625,68.229,127.594,68.229z"/>
</g>
<g>
	<path fill="#F19720" d="M79.249,75.912c-1.16,0-2.181-0.842-2.369-2.024c-0.208-1.31,0.685-2.54,1.995-2.749l48.342-7.683
		c1.314-0.207,2.54,0.685,2.749,1.994c0.208,1.31-0.685,2.541-1.995,2.749l-48.342,7.684C79.5,75.902,79.374,75.912,79.249,75.912z"
		/>
</g>
<g>
	<g>
		<path fill="#2B3996" d="M138.798,17.966H35.072c-1.326,0-2.401-1.075-2.401-2.401c0-1.327,1.075-2.401,2.401-2.401h103.727
			c1.326,0,2.401,1.075,2.401,2.401C141.199,16.891,140.125,17.966,138.798,17.966z"/>
	</g>
</g>
<g>
	<path fill="#2B3996" d="M125.673,66.948c-0.23,0-0.465-0.033-0.697-0.103c-1.269-0.384-1.986-1.725-1.603-2.994l14.727-48.662
		c0.384-1.27,1.724-1.987,2.994-1.603c1.269,0.384,1.986,1.724,1.603,2.994l-14.727,48.662
		C127.657,66.28,126.704,66.948,125.673,66.948z"/>
</g>
<g>
	<path fill="#2B3996" d="M77.328,74.631c-1.16,0-2.181-0.842-2.368-2.024c-0.208-1.31,0.685-2.541,1.994-2.749l48.342-7.684
		c1.314-0.207,2.54,0.685,2.749,1.995c0.208,1.31-0.685,2.54-1.995,2.748l-48.342,7.684C77.58,74.622,77.453,74.631,77.328,74.631z"
		/>
</g>
<g>
	<path fill="#2B3996" d="M52.361,86.477c-0.909,0-1.778-0.518-2.183-1.397L14.962,8.565c-0.554-1.205-0.027-2.63,1.177-3.185
		c1.205-0.555,2.631-0.027,3.185,1.177l35.216,76.515c0.555,1.205,0.027,2.63-1.177,3.185
		C53.038,86.406,52.697,86.477,52.361,86.477z"/>
</g>
<g>
	<path fill="#2B3996" d="M127.593,86.797H52.359c-1.326,0-2.401-1.075-2.401-2.401s1.075-2.401,2.401-2.401h75.234
		c1.326,0,2.401,1.075,2.401,2.401S128.919,86.797,127.593,86.797z"/>
</g>
<g>
	<path fill="#2B3996" d="M65.817,100.711c-3.877,0-7.031-3.154-7.031-7.032s3.154-7.031,7.031-7.031
		c3.877,0,7.032,3.154,7.032,7.031S69.694,100.711,65.817,100.711z M65.817,89.85c-2.112,0-3.83,1.718-3.83,3.83
		s1.718,3.83,3.83,3.83s3.83-1.718,3.83-3.83S67.929,89.85,65.817,89.85z"/>
</g>
<g>
	<path fill="#2B3996" d="M108.705,100.711c-3.877,0-7.031-3.154-7.031-7.031c0-3.877,3.154-7.031,7.031-7.031
		c3.877,0,7.031,3.154,7.031,7.031C115.736,97.557,112.582,100.711,108.705,100.711z M108.705,89.85c-2.112,0-3.83,1.718-3.83,3.83
		s1.718,3.83,3.83,3.83s3.83-1.718,3.83-3.83S110.816,89.85,108.705,89.85z"/>
</g>
<g>
	<path fill="#2B3996" d="M2.401,9.514C1.08,9.514,0.006,8.446,0,7.124c-0.006-1.326,1.064-2.406,2.391-2.412l14.438-0.064
		c0.004,0,0.007,0,0.011,0c1.321,0,2.395,1.068,2.401,2.391c0.006,1.326-1.064,2.406-2.39,2.412L2.412,9.514
		C2.408,9.514,2.404,9.514,2.401,9.514z"/>
</g>
<g>
	<circle fill="#2B3C94" cx="69.647" cy="73.511" r="3.202"/>
</g>
</svg>
