<?xml version="1.0" encoding="utf-8"?>
<!-- Generator: Adobe Illustrator 15.1.0, SVG Export Plug-In . SVG Version: 6.00 Build 0)  -->
<!DOCTYPE svg PUBLIC "-//W3C//DTD SVG 1.1//EN" "http://www.w3.org/Graphics/SVG/1.1/DTD/svg11.dtd">
<svg version="1.1" id="Layer_1" xmlns="http://www.w3.org/2000/svg" xmlns:xlink="http://www.w3.org/1999/xlink" x="0px" y="0px"
	 width="147.333px" height="104.667px" viewBox="0 0 147.333 104.667" enable-background="new 0 0 147.333 104.667"
	 xml:space="preserve">
<g>
	<path fill="#F19722" d="M32.814,91.346c-0.603,0-1.2-0.269-1.599-0.781c-5.081-6.531-8.461-14.329-9.776-22.549
		c-4.312-26.955,14.108-52.393,41.063-56.706c9.404-1.504,18.965-0.288,27.65,3.517c1.023,0.449,1.49,1.642,1.041,2.666
		c-0.448,1.024-1.642,1.49-2.665,1.041c-7.972-3.493-16.75-4.609-25.387-3.228c-24.751,3.96-41.667,27.319-37.707,52.07
		c1.208,7.549,4.311,14.708,8.975,20.703c0.686,0.882,0.527,2.154-0.354,2.84C33.686,91.207,33.249,91.346,32.814,91.346z"/>
</g>
<g>
	<circle fill="#FFFFFF" cx="45.037" cy="93.809" r="2.698"/>
</g>
<g>
	<g>
		<g>
			<g>
				<path fill="#FFFFFF" d="M72.426,67.322c-11.306,0-20.557-9.25-20.557-20.557s9.251-20.557,20.557-20.557
					c11.306,0,20.557,9.25,20.557,20.557S83.732,67.322,72.426,67.322z M72.426,28.778c-9.893,0-17.987,8.094-17.987,17.987
					s8.094,17.987,17.987,17.987c9.893,0,17.987-8.094,17.987-17.987S82.319,28.778,72.426,28.778z"/>
				<path fill="#FFFFFF" d="M72.426,68.131c-11.781,0-21.366-9.585-21.366-21.366s9.584-21.366,21.366-21.366
					s21.366,9.585,21.366,21.366S84.207,68.131,72.426,68.131z M72.426,27.018c-10.889,0-19.747,8.858-19.747,19.747
					s8.858,19.747,19.747,19.747s19.748-8.858,19.748-19.747S83.314,27.018,72.426,27.018z M72.426,65.562
					c-10.364,0-18.796-8.432-18.796-18.796s8.432-18.796,18.796-18.796s18.796,8.432,18.796,18.796S82.79,65.562,72.426,65.562z
					 M72.426,29.587c-9.472,0-17.177,7.706-17.177,17.178c0,9.472,7.706,17.178,17.177,17.178c9.472,0,17.178-7.706,17.178-17.178
					C89.604,37.293,81.898,29.587,72.426,29.587z"/>
			</g>
		</g>
	</g>
	<g>
		<g>
			<path fill="#FFFFFF" d="M117.74,49.805c0.857-0.061,1.711-0.141,2.562-0.237c-2.681-17.504-14.753-31.941-30.903-37.996
				c-0.08,0.88-0.184,1.756-0.31,2.63C104.04,20.043,115.188,33.508,117.74,49.805z"/>
			<path fill="#FFFFFF" d="M117.739,50.614c-0.396,0-0.737-0.288-0.799-0.684c-2.467-15.753-13.252-29.155-28.147-34.975
				c-0.35-0.137-0.56-0.497-0.506-0.869c0.127-0.88,0.23-1.751,0.305-2.587c0.023-0.252,0.162-0.478,0.375-0.613
				c0.214-0.134,0.479-0.161,0.715-0.072c16.688,6.257,28.728,21.06,31.419,38.631c0.033,0.217-0.023,0.439-0.157,0.614
				s-0.333,0.288-0.552,0.312c-0.881,0.1-1.754,0.181-2.596,0.24C117.778,50.614,117.758,50.614,117.739,50.614z M89.977,13.685
				c14.89,6.055,25.705,19.465,28.441,35.256c0.313-0.026,0.629-0.056,0.948-0.087c-2.793-16.28-13.902-29.993-29.27-36.144
				C90.06,13.032,90.02,13.357,89.977,13.685z"/>
		</g>
		<g>
			<path fill="#FFFFFF" d="M105.924,91.75c10.768-8.888,14.938-19.778,14.938-34.81c0-2.507-0.193-4.969-0.561-7.373
				c-0.851,0.096-1.705,0.176-2.562,0.237c0.364,2.326,0.553,4.708,0.553,7.136c0,14.35-3.908,24.615-14.244,33.028L105.924,91.75z"
				/>
			<path fill="#FFFFFF" d="M105.924,92.56c-0.201,0-0.402-0.075-0.558-0.223l-1.875-1.781c-0.168-0.16-0.26-0.385-0.251-0.618
				c0.009-0.232,0.117-0.45,0.298-0.596c9.774-7.958,13.945-17.647,13.945-32.401c0-2.349-0.183-4.708-0.543-7.011
				c-0.035-0.224,0.025-0.452,0.166-0.629s0.35-0.288,0.576-0.304c0.818-0.058,1.669-0.137,2.527-0.234
				c0.432-0.051,0.826,0.251,0.892,0.682c0.378,2.471,0.57,4.993,0.57,7.496c0,15.81-4.698,26.738-15.232,35.434
				C106.29,92.499,106.106,92.56,105.924,92.56z M105.268,90.01l0.69,0.656c9.742-8.287,14.095-18.723,14.095-33.726
				c0-2.163-0.148-4.341-0.441-6.485c-0.318,0.032-0.633,0.062-0.946,0.088c0.29,2.11,0.436,4.257,0.436,6.397
				c0,7.51-1.083,13.742-3.309,19.053C113.562,81.315,110.114,85.908,105.268,90.01z"/>
		</g>
		<g>
			<path fill="#FFFFFF" d="M38.837,91.931c-9.859-8.871-14.848-20.703-14.848-34.99c0-26.724,21.713-48.437,48.437-48.437
				c5.97,0,11.689,1.086,16.973,3.067c-0.08,0.88-0.184,1.756-0.31,2.63c-5.167-2.018-10.786-3.128-16.663-3.128
				c-25.311,0-45.867,20.557-45.867,45.867c0,13.588,4.708,24.784,14.112,33.187L38.837,91.931z"/>
			<path fill="#FFFFFF" d="M38.837,92.74c-0.193,0-0.387-0.069-0.541-0.208C28.266,83.508,23.18,71.533,23.18,56.941
				c0-27.154,22.091-49.246,49.246-49.246c5.931,0,11.737,1.049,17.257,3.119c0.341,0.128,0.555,0.468,0.522,0.831
				c-0.078,0.865-0.184,1.765-0.315,2.673c-0.035,0.245-0.18,0.459-0.394,0.584c-0.214,0.124-0.472,0.144-0.702,0.054
				c-5.218-2.039-10.725-3.072-16.368-3.072c-24.845,0-45.058,20.212-45.058,45.058c0,13.414,4.657,24.376,13.842,32.583
				c0.167,0.149,0.265,0.36,0.27,0.584s-0.083,0.439-0.242,0.597l-1.834,1.803C39.248,92.662,39.042,92.74,38.837,92.74z
				 M72.426,9.313c-26.262,0-47.627,21.366-47.627,47.627c0,13.838,4.715,25.231,14.018,33.875l0.677-0.666
				C30.373,81.69,25.75,70.522,25.75,56.941c0-25.738,20.939-46.677,46.676-46.677c5.5,0,10.875,0.949,15.996,2.82
				c0.041-0.326,0.078-0.649,0.111-0.969C83.369,10.256,77.954,9.313,72.426,9.313z"/>
		</g>
	</g>
	<g>
		<g>
			<path fill="#FFFFFF" d="M40.178,90.988l-2.184-1.413c7.708-11.563,20.557-18.501,34.432-18.501
				c13.748,0,26.467,6.809,34.176,18.115l-2.184,1.414c-7.195-10.664-19.144-17.088-31.992-17.088
				C59.45,73.515,47.373,80.067,40.178,90.988z"/>
			<path fill="#FFFFFF" d="M40.177,91.797c-0.15,0-0.303-0.042-0.439-0.13l-2.184-1.414c-0.182-0.118-0.309-0.303-0.353-0.515
				c-0.044-0.212-0.001-0.433,0.119-0.613c7.873-11.81,20.997-18.861,35.105-18.861c13.934,0,26.959,6.904,34.844,18.469
				c0.123,0.18,0.168,0.402,0.125,0.616c-0.043,0.214-0.171,0.401-0.354,0.52l-2.184,1.414c-0.37,0.24-0.864,0.139-1.11-0.227
				c-7.069-10.477-18.777-16.731-31.321-16.731c-12.711,0-24.514,6.396-31.572,17.109C40.698,91.669,40.44,91.797,40.177,91.797z
				 M39.129,89.345l0.821,0.532c7.404-10.769,19.483-17.172,32.476-17.172c12.819,0,24.801,6.262,32.212,16.791l0.821-0.532
				c-7.625-10.712-19.911-17.082-33.033-17.082C59.132,71.883,46.747,78.395,39.129,89.345z"/>
		</g>
	</g>
</g>
</svg>
